<svg xmlns="http://www.w3.org/2000/svg" viewBox="0 0 64 64">
  <circle cx="32" cy="32" r="30" fill="#f5f7fa" />
  <circle cx="20" cy="16" r="10" fill="#1f2933" />
  <circle cx="44" cy="16" r="10" fill="#1f2933" />
  <circle cx="32" cy="36" r="22" fill="#ffffff" />
  <ellipse cx="22" cy="30" rx="8" ry="10" fill="#2f3b45" />
  <ellipse cx="42" cy="30" rx="8" ry="10" fill="#2f3b45" />
  <circle cx="24" cy="30" r="4" fill="#ffffff" />
  <circle cx="44" cy="30" r="4" fill="#ffffff" />
  <circle cx="26" cy="30" r="2" fill="#1f2933" />
  <circle cx="42" cy="30" r="2" fill="#1f2933" />
  <path d="M32 34c-3 0-6 2-6 5 0 3 3 5 6 5s6-2 6-5c0-3-3-5-6-5z" fill="#2f3b45" />
  <path d="M26 43c2 2 4 3 6 3s4-1 6-3" stroke="#2f3b45" stroke-width="2" stroke-linecap="round" fill="none" />
</svg>
